<?xml version="1.0" encoding="utf-8"?>
<!-- Generator: Adobe Illustrator 18.1.1, SVG Export Plug-In . SVG Version: 6.00 Build 0)  -->
<svg version="1.1" id="Layer_1" xmlns="http://www.w3.org/2000/svg" xmlns:xlink="http://www.w3.org/1999/xlink" x="0px" y="0px"
	 viewBox="-158 340.7 217.5 34.7" enable-background="new -158 340.7 217.5 34.7" xml:space="preserve">
<g>
	<path fill="#20C6B7" d="M-158,353.7c0-7,0.4-8.7,0.6-10.3c4.4-1.9,9.5-2.7,13.5-2.7c6,0,10.6,1.7,11.4,3.8c0.3,0.8,0.4,1.7,0.4,2.5
		c0,4.6-3.9,10.3-9.3,10.6c6.2,0.2,9.6,1.9,10.1,3.9c0.2,0.8,0.3,1.7,0.3,2.6c0,4.3-2.4,9.1-5.1,10.6c-0.9,0.5-3.5,0.7-6.6,0.7
		c-4.6,0-10.8-0.5-14.5-1.6C-157.2,373.8-158,363.1-158,353.7z M-147.6,368.9c0,0.5,2.1,0.3,2.3,0.2c0.3-0.2,1.3-6,0.7-7.2
		c0-0.1-2.2-0.1-2.7,0.1C-147.2,362-147.6,368.6-147.6,368.9z M-144.3,357.6c0.3-6.4,0.1-7-0.5-7.5c-0.4-0.3-1.7-0.2-1.8,0
		c-0.1,0.2-0.4,7.6-0.4,7.6C-146.7,357.6-145,357.6-144.3,357.6z"/>
	<path fill="#20C6B7" d="M-119.6,350.4c1.1,1.9-0.4,23.1-1,23.9c-0.6,0.8-6.8,0.7-7.6,0.2c-1.2-0.7-1.8-20.6-1.4-22.3
		C-129.1,351.2-121.1,349.7-119.6,350.4z M-120.7,341.6c0.2,0.5,0.1,6-0.3,6.5c-0.6,0.7-7.3,1.5-7.5,1.2c-0.8-1.2-1-7.5-0.5-8.2
		C-128.7,340.6-121,341.1-120.7,341.6z"/>
	<path fill="#20C6B7" d="M-115.5,350.8c0-2.4,0.1-3.6,0.3-4.7c0.4-0.8,10.8-3.1,10.6-1.6c-0.2,2.1-0.3,3.2-0.6,5.3
		c2.3-0.3,3.9-0.5,3.9-0.5c1,0.2-1.2,9.1-2.2,9.6c-0.1,0.1-1,0.1-2.3,0.1c-0.1,3.8-0.1,5.8,0,6.4c0.1,0.4,4-1.1,4.8-1.2
		c1.3-0.1-0.3,8.8-1.8,9.8c-0.7,0.4-10.2,1.2-10.8,0.3c-1.2-3.1-2.2-9.8-2.2-16.2c-1-0.2-1.5-0.4-1.7-0.5c-0.6-0.6-0.3-6.6,0.1-6.7
		C-116.6,350.9-116.4,350.9-115.5,350.8z"/>
	<path fill="#20C6B7" d="M-98.6,353.7c0-7,0.4-8.7,0.6-10.3c4.4-1.9,9.5-2.7,13.5-2.7c6,0,10.6,1.7,11.4,3.8
		c0.3,0.8,0.4,1.7,0.4,2.5c0,4.6-3.9,10.3-9.3,10.6c6.2,0.2,9.6,1.9,10.1,3.9c0.2,0.8,0.3,1.7,0.3,2.6c0,4.3-2.4,9.1-5.1,10.6
		c-0.9,0.5-3.5,0.7-6.6,0.7c-4.6,0-10.8-0.5-14.5-1.6C-97.8,373.8-98.6,363.1-98.6,353.7z M-88.2,368.9c0,0.5,2.1,0.3,2.3,0.2
		c0.3-0.2,1.3-6,0.7-7.2c0-0.1-2.2-0.1-2.7,0.1C-87.8,362-88.2,368.6-88.2,368.9z M-84.8,357.6c0.3-6.4,0.1-7-0.5-7.5
		c-0.4-0.3-1.7-0.2-1.8,0c-0.1,0.2-0.4,7.6-0.4,7.6C-87.3,357.6-85.6,357.6-84.8,357.6z"/>
	<path fill="#20C6B7" d="M-59.5,350.3c4.1,0,8.8,0.7,12.8,3.2c0.3,0.3,0.4,1.8,0.4,4c0,5.6-0.7,15.1-1.2,15.9
		c-0.5,0.9-2.7,1.5-5.2,1.5c-0.9,0-1.8-0.1-2.6-0.2c-0.1-0.1-0.3-0.7-0.4-1.2c-1.6,1.1-5,1.6-7.9,1.6c-2.1,0-3.9-0.3-4.5-0.8
		c-1.3-1.2-2.2-6.8-2.2-9.9c0-0.7,0-1.3,0.1-1.7c2-1.2,5.3-2.1,8.5-2.1c1.7,0,3.4,0.2,4.8,0.8l-0.1-1.8c-1-0.4-2.5-0.8-4.5-0.8
		c-1.9,0-3.6,0.3-6.6,1.4c-1.5-1-2.1-3.6-2.1-5.9c0-0.9,0.1-1.7,0.2-2.4C-69.9,351.8-65.6,350.3-59.5,350.3z M-56.1,370.1l-0.4-5.1
		c-0.3-0.1-0.8-0.1-1.8,0c-0.1,1.7,0.7,5.4,0.9,5.4C-57.5,370.5-56.6,370.4-56.1,370.1z"/>
	<path fill="#20C6B7" d="M-34.9,343c0.8,0,1.4,0.1,1.8,0.3c0.3,0.5,0.4,2.7,0.4,5.7c0,8.8-0.9,24.7-1.3,25.2
		c-0.3,0.4-2.4,0.6-4.5,0.6c-1.9,0-3.8-0.1-4.2-0.4c-0.9-0.6-1.6-17-1.6-25.1c0-2.4,0-4,0.2-4.3C-43.9,344.4-38,343-34.9,343z"/>
	<path fill="#20C6B7" d="M-21.2,343c0.8,0,1.4,0.1,1.8,0.3c0.3,0.5,0.4,2.7,0.4,5.7c0,8.8-0.9,24.7-1.3,25.2
		c-0.3,0.4-2.4,0.6-4.5,0.6c-1.9,0-3.8-0.1-4.2-0.4c-0.9-0.6-1.6-17-1.6-25.1c0-2.4,0-4,0.2-4.3C-30.2,344.4-24.4,343-21.2,343z"/>
	<path fill="#20C6B7" d="M-17.1,360.3c0-2.1,0.2-4,0.7-5.1c1.5-3.3,6.7-5,11.8-5c5.1,0,10.1,1.6,11.1,5.1c0.3,1.1,0.4,2.4,0.4,4
		c0,4.4-1,9.9-1.5,11c-1.5,3.4-6,5-10.6,5c-4.5,0-9-1.6-10.6-5C-16.4,368.9-17.1,364.2-17.1,360.3z M-5.5,369c0.3,0.2,0.7,0.2,1,0
		c0.4-0.2,0.6-11.3,0.3-11.6c-0.2-0.2-1.2-0.2-1.5,0C-6,357.6-6.2,367.3-5.5,369z"/>
	<path fill="#20C6B7" d="M8.9,360.3c0-2.1,0.2-4,0.7-5.1c1.5-3.3,6.7-5,11.8-5c5.1,0,10.1,1.6,11.1,5.1c0.3,1.1,0.4,2.4,0.4,4
		c0,4.4-1,9.9-1.5,11c-1.5,3.4-6,5-10.6,5c-4.5,0-9-1.6-10.6-5C9.6,368.9,8.9,364.2,8.9,360.3z M20.5,369c0.3,0.2,0.7,0.2,1,0
		c0.4-0.2,0.6-11.3,0.3-11.6c-0.2-0.2-1.2-0.2-1.5,0C20.1,357.6,19.9,367.3,20.5,369z"/>
	<path fill="#20C6B7" d="M48.8,350.2c8.5,0,10.7,4.5,10.7,12.7c0,5.6-1,11-1,11c-0.2,0.6-3.8,1.1-6.8,1.1c-1.9,0-3.5-0.2-3.7-0.8
		c-0.1-0.5,0.3-14.3-0.6-16.3c-0.3-0.2-1.1,0.1-1.2,0.2c-0.3,2-0.2,16.1-0.2,16.1c-0.2,0.4-2,0.6-3.9,0.6c-2.6,0-5.6-0.3-5.9-0.7
		c-1.2-6.5-1.2-20.7-1.1-20.8C38.5,351,44.9,350.2,48.8,350.2z"/>
</g>
</svg>
