<?xml version="1.0" encoding="utf-8"?>
<!-- Generator: Adobe Illustrator 18.1.1, SVG Export Plug-In . SVG Version: 6.00 Build 0)  -->
<svg version="1.1" id="Layer_1" xmlns="http://www.w3.org/2000/svg" xmlns:xlink="http://www.w3.org/1999/xlink" x="0px" y="0px"
	 viewBox="0 0 478.4 172.9" enable-background="new 0 0 478.4 172.9" xml:space="preserve">
<g>
	<g>
		<path fill="#00C6B6" d="M120.7,61.1c0.8,0.4,1.6,1,2.2,1.7c0,0.1,0.1,0.1,0.2,0.1c0,0,0.1,0,0.1,0l16.8-7.2c0.1,0,0.1-0.1,0.1-0.2
			c0-0.1,0-0.2-0.1-0.2l-15.6-15.7c0,0-0.1-0.1-0.2-0.1c0,0-0.1,0-0.1,0c-0.1,0-0.2,0.1-0.2,0.2l-3.4,21.1
			C120.5,61,120.6,61.1,120.7,61.1z"/>
		<path fill="#00C6B6" d="M85.9,46.9c0.8,1.2,1.3,2.7,1.4,4.2c0,0.1,0.1,0.2,0.2,0.2l24.9,10.7c0,0,0.1,0,0.1,0c0.1,0,0.1,0,0.2-0.1
			c0.8-0.6,1.6-1,2.6-1.3c0.1,0,0.2-0.1,0.2-0.2l4.1-25.5c0-0.1,0-0.2-0.1-0.2l-15.6-15.6c0,0-0.1-0.1-0.2-0.1c0,0,0,0,0,0
			c-0.1,0-0.1,0-0.2,0.1L85.9,46.6C85.9,46.7,85.9,46.8,85.9,46.9z M113,61.3c0.6-0.4,1.2-0.7,1.9-0.9C114.3,60.7,113.6,61,113,61.3
			z M103.7,19.2l15.6,15.6L103.7,19.2L92,37.6L103.7,19.2z M87.6,51c0-0.6-0.1-1.1-0.3-1.7C87.5,49.9,87.6,50.5,87.6,51z M86.4,47.2
			c-0.1-0.2-0.2-0.3-0.3-0.5C86.2,46.9,86.3,47.1,86.4,47.2z"/>
		<path fill="#00C6B6" d="M170.9,86.3l-26.7-26.8c0,0-0.1-0.1-0.2-0.1c0,0-0.1,0-0.1,0l-18.1,7.8c-0.1,0-0.2,0.1-0.2,0.2
			c0,0.1,0.1,0.2,0.2,0.2l44.6,19.1c0,0,0.1,0,0.1,0c0.1,0,0.1,0,0.2-0.1l0.2-0.2C171,86.5,171,86.4,170.9,86.3z"/>
		<path fill="#00C6B6" d="M166.4,90.6l-42.9-18.4c0,0-0.1,0-0.1,0c-0.1,0-0.2,0-0.2,0.1c-1.2,1.6-2.9,2.6-4.9,2.9
			c-0.1,0-0.2,0.1-0.2,0.2l-4.6,28.4c0,0.1,0,0.2,0.1,0.2c1.6,1.3,2.5,3.1,2.7,5.1c0,0.1,0.1,0.2,0.2,0.2l25.9,5.4c0,0,0,0,0.1,0
			c0.1,0,0.1,0,0.2-0.1L166.5,91c0.1-0.1,0.1-0.1,0.1-0.2C166.6,90.7,166.5,90.7,166.4,90.6z"/>
		<path fill="#00C6B6" d="M109.7,66.3l-23.4-10c0,0-0.1,0-0.1,0c-0.1,0-0.2,0-0.2,0.1c-1.6,2.5-4.3,3.9-7.2,3.9
			c-0.4,0-0.9,0-1.4-0.1c0,0,0,0,0,0c-0.1,0-0.2,0-0.2,0.1L57.9,90.5c-0.1,0.1-0.1,0.2,0,0.3c0,0.1,0.1,0.1,0.2,0.1c0,0,0.1,0,0.1,0
			l51.4-22.2c0.1,0,0.2-0.1,0.1-0.2c0-0.1,0-0.2,0-0.3c0-0.1,0-0.2,0-0.3c0-0.4,0.1-0.8,0.1-1.2C109.9,66.5,109.8,66.4,109.7,66.3z
			 M58.1,90.6L58.1,90.6l11.7-18.4L58.1,90.6z"/>
		<path fill="#00C6B6" d="M137.9,119.1l-22.7-4.8c0,0,0,0-0.1,0c-0.1,0-0.1,0-0.2,0.1c-0.9,1.1-2,2-3.3,2.4c-0.1,0-0.1,0.1-0.2,0.2
			l-5.4,33.9c0,0.1,0,0.2,0.1,0.3c0,0,0.1,0,0.1,0c0.1,0,0.1,0,0.2-0.1l31.6-31.6c0.1-0.1,0.1-0.2,0.1-0.2
			C138.1,119.2,138,119.2,137.9,119.1z M115.1,114.6L115.1,114.6c-0.1,0.1-0.2,0.2-0.3,0.3C114.9,114.9,115,114.8,115.1,114.6z
			 M106.3,151l31.6-31.6h0L106.3,151z"/>
		<path fill="#00C6B6" d="M106.2,116.8c-2.2-0.9-3.8-2.8-4.3-5.1c0-0.1-0.1-0.2-0.2-0.2l-42.2-8.8c0,0,0,0-0.1,0
			c-0.1,0-0.2,0.1-0.2,0.1c-0.2,0.4-0.4,0.7-0.6,1c-0.1,0.1-0.1,0.2,0,0.3L97,160.2c0,0.1,0.1,0.1,0.2,0.1c0,0,0,0,0,0
			c0.1,0,0.1,0,0.2-0.1l2.3-2.3c0,0,0.1-0.1,0.1-0.1l6.5-40.7C106.3,117,106.3,116.9,106.2,116.8z M101.6,111.8
			c0.1,0.3,0.2,0.6,0.3,0.9C101.8,112.4,101.7,112.1,101.6,111.8z"/>
		<path fill="#00C6B6" d="M60.3,97.5c0,0.1,0.1,0.2,0.2,0.2l41.8,8.8c0,0,0,0,0.1,0c0.1,0,0.2,0,0.2-0.1c1.2-2.2,3.4-3.6,5.9-3.8
			c0.1,0,0.2-0.1,0.2-0.2l4.5-28c0-0.1,0-0.2-0.1-0.2c-0.3-0.2-0.6-0.5-0.9-0.8c0,0-0.1-0.1-0.2-0.1c0,0-0.1,0-0.1,0L60.2,95.6
			c-0.1,0-0.2,0.2-0.1,0.3C60.1,96.4,60.2,97,60.3,97.5z M112.9,74.3L112.9,74.3c-0.2-0.1-0.3-0.2-0.5-0.4
			C112.6,74.1,112.8,74.2,112.9,74.3z M60.5,97.5l29,6.1L60.5,97.5L60.5,97.5z"/>
		<path fill="#00C6B6" d="M42.7,104.6c-0.2-0.3-0.4-0.6-0.7-0.9c0-0.1-0.1-0.1-0.2-0.1c0,0-0.1,0-0.1,0l-18.1,7.8
			c-0.1,0-0.1,0.1-0.1,0.2c0,0.1,0,0.2,0.1,0.2l8.8,8.8c0,0,0.1,0.1,0.2,0.1c0,0,0,0,0,0c0.1,0,0.1,0,0.2-0.1l10-15.6
			C42.8,104.8,42.8,104.6,42.7,104.6z"/>
		<path fill="#00C6B6" d="M54.7,107.4c0-0.1-0.1-0.1-0.2-0.1c0,0-0.1,0-0.1,0c-1.3,0.6-2.6,0.9-4,0.9c-1.1,0-2.1-0.2-3.2-0.5
			c0,0-0.1,0-0.1,0c-0.1,0-0.2,0-0.2,0.1l-10.5,16.4l0,0c0,0,0,0,0,0l0,0c0,0,0,0,0,0l0,0.1c-0.1,0.1-0.1,0.2,0,0.3l48.1,48.2
			c0,0,0.1,0.1,0.2,0.1c0.1,0,0.1,0,0.2-0.1l8.5-8.5c0.1-0.1,0.1-0.2,0-0.3L54.7,107.4z M36.8,124.6L36.8,124.6l48,48.1L36.8,124.6z
			"/>
		<path fill="#00C6B6" d="M47.9,88.5c0,0.1,0.1,0.1,0.2,0.1c0,0,0,0,0.1,0c0.8-0.2,1.5-0.3,2.2-0.3c0.8,0,1.6,0.1,2.5,0.3
			c0,0,0,0,0.1,0c0.1,0,0.2,0,0.2-0.1L72.6,58c0.1-0.1,0-0.2,0-0.3c-1.5-1.6-2.4-3.7-2.4-6c0-0.6,0.1-1.3,0.2-2c0-0.1,0-0.2-0.1-0.3
			C67.8,48.4,45.9,39,45.9,39c0,0-0.1,0-0.1,0c-0.1,0-0.1,0-0.2,0.1L27.1,57.7C27,57.7,27,57.9,27,58L47.9,88.5z M70,50.7
			c0,0.3-0.1,0.5-0.1,0.8C70,51.2,70,50.9,70,50.7z M52,88.2c-0.4-0.1-0.8-0.1-1.2-0.1C51.2,88.1,51.6,88.1,52,88.2z M45.8,39.2
			L27.2,57.8l20.9,30.5L27.2,57.8L45.8,39.2z"/>
		<path fill="#00C6B6" d="M50,35.2c0,0,22.2,9.5,23.1,9.9c0,0,0.1,0,0.1,0c0.1,0,0.1,0,0.2-0.1c1.5-1.3,3.5-2,5.5-2
			c0.9,0,1.9,0.2,2.8,0.5c0,0,0.1,0,0.1,0c0.1,0,0.2,0,0.2-0.1l18-28.2c0.1-0.1,0-0.2,0-0.3L84.9,0.1c0,0-0.1-0.1-0.2-0.1
			s-0.1,0-0.2,0.1L49.9,34.8c-0.1,0.1-0.1,0.1-0.1,0.2C49.8,35.1,49.9,35.2,50,35.2z M81.7,43.3c-0.3-0.1-0.7-0.2-1-0.3
			C81,43.1,81.3,43.2,81.7,43.3z"/>
		<path fill="#00C6B6" d="M41.4,93.7c0.1,0,0.2,0,0.2-0.1c0.5-0.9,1.1-1.7,1.7-2.4c0.1-0.1,0.1-0.2,0-0.3
			c-0.2-0.3-19.9-29.1-20-29.2c0-0.1-0.1-0.1-0.2-0.1c0,0,0,0,0,0c-0.1,0-0.1,0-0.2,0.1l-23,23C0,84.8,0,84.9,0,85
			c0,0.1,0.1,0.2,0.2,0.2L41.4,93.7C41.4,93.7,41.4,93.7,41.4,93.7z M43.2,91c-0.3,0.3-0.5,0.5-0.8,0.8C42.7,91.6,42.9,91.3,43.2,91
			z"/>
		<path fill="#00C6B6" d="M39.5,98.7c0-0.1-0.1-0.2-0.2-0.2L3.6,91c0,0,0,0-0.1,0c-0.1,0-0.2,0-0.2,0.1c-0.1,0.1,0,0.2,0,0.3l16,16
			c0,0,0.1,0.1,0.2,0.1c0,0,0.1,0,0.1,0L39.4,99C39.5,98.9,39.5,98.8,39.5,98.7z"/>
	</g>
	<g>
		<rect x="348" y="43.3" fill="#303C3D" width="11.7" height="75.8"/>
		<path fill="#303C3D" d="M228.9,64.7c-6.2,0-11.3,2.4-15.1,7.2l-0.3-6.2h-11v53.4h11.7v-38c2.3-4.4,5.8-6.6,10.5-6.6
			c3.2,0,5.6,0.8,7,2.4c1.4,1.6,2.1,4.1,2.1,7.5v34.6h11.7V83.8C245.2,71.1,239.7,64.7,228.9,64.7z"/>
		<path fill="#303C3D" d="M279.1,64.7c-4.4,0-8.5,1.2-12.1,3.5c-3.6,2.3-6.4,5.6-8.4,9.8c-2,4.2-3,9-3,14.3v1.5
			c0,8,2.3,14.3,6.9,19.1c4.6,4.8,10.6,7.2,18,7.2c4.3,0,8.2-0.9,11.7-2.6s6.2-4.2,8.3-7.4l-6.3-6.2c-3.4,4.4-7.7,6.7-13.1,6.7
			c-3.8,0-7-1.3-9.5-3.8c-2.5-2.6-3.9-6.1-4.3-10.5h33.9v-4.8c0-8.5-1.9-15-5.8-19.7C291.7,67.1,286.2,64.7,279.1,64.7z M289.8,87.4
			h-22.2c0.5-4.1,1.8-7.3,3.8-9.6c2-2.3,4.6-3.5,7.7-3.5c3.2,0,5.8,1,7.6,3.1c1.8,2.1,2.9,5.1,3.1,9.1V87.4z"/>
		<path fill="#303C3D" d="M327.6,108.8c-0.8-0.9-1.2-2.4-1.2-4.4V74.6h9.2v-8.9h-9.2v-13h-11.7v13h-8.5v8.9h8.5v30.2
			c0,10.2,4.5,15.2,13.4,15.2c2.5,0,5-0.4,7.7-1.1v-9.3c-1.4,0.3-2.7,0.5-4.1,0.5C329.8,110.2,328.4,109.7,327.6,108.8z"/>
		<rect x="377.7" y="65.7" fill="#303C3D" width="11.7" height="53.4"/>
		<path fill="#303C3D" d="M455.4,101.9l-11-36.2h-12.6l18.2,53.1l-1.7,4.6c-0.9,2.6-2,4.4-3.5,5.5c-1.5,1.1-3.7,1.6-6.6,1.6
			l-2.2-0.1v9.3c2,0.6,3.9,0.9,5.6,0.9c7.6,0,13-4.5,16.1-13.5l20.6-61.5h-12.4L455.4,101.9z"/>
		<path fill="#303C3D" d="M412.2,47.1c-3.2,3.2-4.8,7.8-4.8,13.7v4.9h-7.9v8.9h7.9v44.5h11.7V74.6h10.6v-8.9h-10.6V61
			c0-5.9,2.8-8.8,8.3-8.8c1.7,0,3.2,0.1,4.5,0.4l0.3-9.4c-2.3-0.6-4.5-0.9-6.5-0.9C419.9,42.3,415.4,43.9,412.2,47.1z"/>
		<rect x="377.7" y="42.3" fill="#303C3D" width="11.7" height="10.5"/>
	</g>
</g>
</svg>
