<?xml version="1.0" encoding="utf-8"?>
<!-- Generator: Adobe Illustrator 18.1.1, SVG Export Plug-In . SVG Version: 6.00 Build 0)  -->
<svg version="1.1" id="Layer_1" xmlns:sketch="http://www.bohemiancoding.com/sketch/ns"
	 xmlns="http://www.w3.org/2000/svg" xmlns:xlink="http://www.w3.org/1999/xlink" x="0px" y="0px" viewBox="21.2 310.9 533.9 100.2"
	 enable-background="new 21.2 310.9 533.9 100.2" xml:space="preserve">
<title>Webpop</title>
<description>Created with Sketch (http://www.bohemiancoding.com/sketch)</description>
<g id="Page_1">
	<path id="WEBPOP" fill="#20C6B7" d="M228.8,410c-3,0-4.2-1.3-4.2-4.3v-89.3c0-3,1.2-4.3,4.2-4.3h27.1c27.1,0,36.6,10.1,36.6,22.5
		v7.9c0,6.9-3.3,12.2-9.8,16c8.9,3.6,14.5,9.6,14.5,17.3v10.7c0,12.4-9.5,23.6-36.6,23.6H228.8z M206.6,410h-50.7
		c-3,0-4.2-1.3-4.2-4.3v-89.3c0-3,1.2-4.3,4.2-4.3h49.2c3,0,4.3,1,4.3,4v11.2c0,3-1.3,4.2-4.3,4.2h-29.7v18.7h27.4c3,0,4.3,1,4.3,4
		v10.5c0,3-1.3,4.2-4.3,4.2h-27.4v21.6h31.1c3,0,4.3,1,4.3,4v11.2C210.9,408.8,209.6,410,206.6,410z M248.4,369.1v22.2h12.2
		c7.1,0,13.1-2.6,13.1-9.2v-4.6c0-5.5-6-8.4-13.1-8.4H248.4z M95,316.4l9.8,40.2c1.3,5.2,2.3,14,2.4,15.6c0.1-1.2,1-9.2,2.6-15.4
		l10.1-40.3c0.7-2.7,2-4.3,5-4.3h13.5c3,0,3.9,1.6,3.2,4.3l-22.5,89.3c-0.7,3-2.3,4.3-5.3,4.3H98.8c-2.6,0-4-1.6-4.8-4.3l-10.4-41.5
		c-1-4.2-1.9-12.8-2-14.5c-0.1,1.4-1.3,10.8-2.2,14.7l-10.4,41.3c-0.7,3-2.3,4.3-5.3,4.3H48.7c-2.6,0-4-1.6-4.8-4.3l-22.5-89.3
		c-0.7-2.7,0.1-4.3,3.2-4.3h15.8c3,0,4.3,1.6,5,4.3l9.8,40.3c1,4.5,2,11.4,2.3,12.8c0.1-1,1.2-7.1,2.6-12.8l10.2-40.3
		c0.7-2.7,2-4.3,5-4.3H90C93,312.1,94.3,313.7,95,316.4z M248.4,330.8v20.7h7.5c7.1,0,13.1-2.7,13.1-9.5v-3.7c0-6.6-6-7.5-13.1-7.5
		H248.4z M334.6,376.7v28.9c0,3-1,4.3-4,4.3h-15.6c-3,0-4.2-1.3-4.2-4.3v-89.3c0-3,1.2-4.3,4.2-4.3h31.1c27.1,0,36.6,12.2,36.6,24.6
		v15.4c0,12.4-9.5,24.6-36.6,24.6H334.6z M334.6,331.5v25.8h11.5c7.1,0,13.1-2.7,13.1-9.4v-7.1c0-6.6-6-9.4-13.1-9.4H334.6z
		 M393.8,386.5v-51c0-12.4,9.6-24.6,36.7-24.6c27.1,0,36.9,12.2,36.9,24.6v51c0,12.4-9.8,24.6-36.9,24.6
		C403.5,411.2,393.8,398.9,393.8,386.5z M443.6,382.4v-42.6c0-6.6-6-9.4-13.1-9.4s-13,2.7-13,9.4v42.6c0,6.6,5.9,9.4,13,9.4
		S443.6,389,443.6,382.4z M507,376.7v28.9c0,3-1,4.3-4,4.3h-15.6c-3,0-4.2-1.3-4.2-4.3v-89.3c0-3,1.2-4.3,4.2-4.3h31.1
		c27.1,0,36.6,12.2,36.6,24.6v15.4c0,12.4-9.5,24.6-36.6,24.6H507z M507,331.5v25.8h11.5c7.1,0,13.1-2.7,13.1-9.4v-7.1
		c0-6.6-6-9.4-13.1-9.4H507z"/>
</g>
</svg>
